<?xml version="1.0" encoding="UTF-8"?>
<svg xmlns="http://www.w3.org/2000/svg" viewBox="0 0 960 680" font-family="'Segoe UI', system-ui, Arial, sans-serif">
  <defs>
    <marker id="arrowG" viewBox="0 0 10 10" refX="9" refY="5" markerWidth="7" markerHeight="7" orient="auto-start-reverse">
      <path d="M 0 1 L 9 5 L 0 9 z" fill="#6B7280"/>
    </marker>
    <linearGradient id="lobeSimple" x1="0" y1="1" x2="0" y2="0">
      <stop offset="0%" stop-color="#F59E0B" stop-opacity="0.15"/>
      <stop offset="100%" stop-color="#F59E0B" stop-opacity="0.6"/>
    </linearGradient>
    <linearGradient id="lobeComplex1" x1="0" y1="1" x2="0" y2="0">
      <stop offset="0%" stop-color="#EF4444" stop-opacity="0.1"/>
      <stop offset="100%" stop-color="#EF4444" stop-opacity="0.5"/>
    </linearGradient>
    <linearGradient id="lobeComplex2" x1="0.3" y1="1" x2="0.7" y2="0">
      <stop offset="0%" stop-color="#8B5CF6" stop-opacity="0.1"/>
      <stop offset="100%" stop-color="#8B5CF6" stop-opacity="0.45"/>
    </linearGradient>
    <linearGradient id="smoothGrad" x1="0" y1="0" x2="1" y2="0">
      <stop offset="0%" stop-color="#1E40AF"/>
      <stop offset="20%" stop-color="#3B82F6"/>
      <stop offset="40%" stop-color="#60A5FA"/>
      <stop offset="55%" stop-color="#F59E0B"/>
      <stop offset="70%" stop-color="#EF4444"/>
      <stop offset="85%" stop-color="#DC2626"/>
      <stop offset="100%" stop-color="#7F1D1D"/>
    </linearGradient>
  </defs>

  <rect width="960" height="680" fill="white" rx="8"/>

  <!-- Title -->
  <text x="480" y="36" text-anchor="middle" font-size="22" font-weight="700" fill="#111827">Why Neural Materials?</text>
  <text x="480" y="56" text-anchor="middle" font-size="13" fill="#6B7280">Real-world reflectance is too complex for analytic formulas or lookup tables</text>

  <!-- ================================================================ -->
  <!-- ROW 1: Analytic BRDF is too simple                                -->
  <!-- ================================================================ -->
  <g transform="translate(30, 76)">
    <rect x="0" y="0" width="900" height="195" rx="10" fill="#FEF2F2" stroke="#FECACA" stroke-width="1"/>
    <text x="20" y="22" font-size="14" font-weight="700" fill="#991B1B">Problem 1: Analytic models are too simple</text>

    <!-- Analytic: single GGX lobe on hemisphere -->
    <g transform="translate(30, 40)">
      <text x="75" y="-2" text-anchor="middle" font-size="10" font-weight="600" fill="#374151">GGX Model</text>
      <!-- Surface line -->
      <line x1="0" y1="130" x2="150" y2="130" stroke="#9CA3AF" stroke-width="1.5"/>
      <!-- Normal arrow -->
      <line x1="75" y1="130" x2="75" y2="30" stroke="#374151" stroke-width="1" stroke-dasharray="3,2"/>
      <text x="82" y="35" font-size="7" fill="#6B7280">n</text>
      <!-- Incoming light -->
      <line x1="20" y1="40" x2="75" y2="130" stroke="#F59E0B" stroke-width="1.2"/>
      <text x="12" y="38" font-size="7" fill="#F59E0B">l</text>
      <!-- Simple single specular lobe -->
      <path d="M 75,130 Q 85,90 105,60 Q 115,45 120,40 Q 125,45 128,55 Q 135,80 130,110 Q 125,125 110,130 Z" fill="url(#lobeSimple)" stroke="#F59E0B" stroke-width="1.2"/>
      <text x="115" y="78" font-size="7" fill="#92400E">single lobe</text>
    </g>

    <!-- "vs" -->
    <text x="225" y="120" text-anchor="middle" font-size="14" font-weight="700" fill="#9CA3AF">vs</text>

    <!-- Real material: complex multi-lobe -->
    <g transform="translate(260, 40)">
      <text x="100" y="-2" text-anchor="middle" font-size="10" font-weight="600" fill="#374151">Real Cloth</text>
      <!-- Surface line -->
      <line x1="0" y1="130" x2="200" y2="130" stroke="#9CA3AF" stroke-width="1.5"/>
      <!-- Normal -->
      <line x1="100" y1="130" x2="100" y2="30" stroke="#374151" stroke-width="1" stroke-dasharray="3,2"/>
      <!-- Incoming light -->
      <line x1="30" y1="40" x2="100" y2="130" stroke="#F59E0B" stroke-width="1.2"/>
      <!-- Wide diffuse lobe -->
      <path d="M 40,130 Q 50,100 70,80 Q 85,65 100,55 Q 115,65 130,80 Q 150,100 160,130 Z" fill="url(#lobeComplex1)" stroke="#EF4444" stroke-width="0.8" opacity="0.7"/>
      <!-- Sharp specular lobe -->
      <path d="M 100,130 Q 108,100 118,70 Q 125,50 132,42 Q 138,48 142,65 Q 148,90 140,120 Q 135,128 120,130 Z" fill="url(#lobeSimple)" stroke="#F59E0B" stroke-width="0.8"/>
      <!-- Off-specular lobe (fiber scattering) -->
      <path d="M 100,130 Q 90,110 78,95 Q 68,82 60,75 Q 55,80 52,90 Q 50,105 60,120 Q 70,128 85,130 Z" fill="url(#lobeComplex2)" stroke="#8B5CF6" stroke-width="0.8" opacity="0.8"/>
      <!-- Grazing lobe -->
      <path d="M 145,130 Q 155,115 168,108 Q 178,104 185,108 Q 188,115 185,125 Q 180,130 170,130 Z" fill="url(#lobeComplex2)" stroke="#8B5CF6" stroke-width="0.6" opacity="0.6"/>
      <!-- Labels -->
      <text x="68" y="72" font-size="6.5" fill="#DC2626">diffuse</text>
      <text x="130" y="55" font-size="6.5" fill="#92400E">specular</text>
      <text x="42" y="82" font-size="6.5" fill="#7C3AED">fiber</text>
      <text x="167" y="102" font-size="6.5" fill="#7C3AED">grazing</text>
    </g>

    <!-- More real materials -->
    <g transform="translate(510, 40)">
      <text x="75" y="-2" text-anchor="middle" font-size="10" font-weight="600" fill="#374151">Real Hair</text>
      <line x1="0" y1="130" x2="150" y2="130" stroke="#9CA3AF" stroke-width="1.5"/>
      <line x1="75" y1="130" x2="75" y2="30" stroke="#374151" stroke-width="1" stroke-dasharray="3,2"/>
      <line x1="20" y1="45" x2="75" y2="130" stroke="#F59E0B" stroke-width="1.2"/>
      <!-- R lobe (surface reflection) -->
      <path d="M 75,130 Q 82,110 95,90 Q 105,78 112,74 Q 118,78 120,88 Q 118,105 108,125 Q 100,130 90,130 Z" fill="url(#lobeSimple)" stroke="#F59E0B" stroke-width="0.8"/>
      <!-- TT lobe (transmission) -->
      <path d="M 75,130 Q 60,115 48,100 Q 38,88 32,82 Q 28,86 26,95 Q 28,110 40,125 Q 48,130 58,130 Z" fill="url(#lobeComplex1)" stroke="#EF4444" stroke-width="0.8" opacity="0.7"/>
      <!-- TRT lobe -->
      <path d="M 75,130 Q 80,118 90,108 Q 98,100 105,98 Q 110,102 112,112 Q 108,124 100,130 Z" fill="url(#lobeComplex2)" stroke="#8B5CF6" stroke-width="0.8" opacity="0.8"/>
      <text x="108" y="70" font-size="6.5" fill="#92400E">R</text>
      <text x="30" y="80" font-size="6.5" fill="#DC2626">TT</text>
      <text x="108" y="96" font-size="6.5" fill="#7C3AED">TRT</text>
    </g>

    <g transform="translate(700, 40)">
      <text x="75" y="-2" text-anchor="middle" font-size="10" font-weight="600" fill="#374151">Layered Material</text>
      <line x1="0" y1="130" x2="150" y2="130" stroke="#9CA3AF" stroke-width="1.5"/>
      <line x1="75" y1="130" x2="75" y2="30" stroke="#374151" stroke-width="1" stroke-dasharray="3,2"/>
      <line x1="20" y1="45" x2="75" y2="130" stroke="#F59E0B" stroke-width="1.2"/>
      <!-- Multiple interacting layers create complex shapes -->
      <!-- Coat -->
      <path d="M 75,130 Q 84,108 100,85 Q 112,70 122,64 Q 130,70 134,82 Q 132,100 122,120 Q 112,130 95,130 Z" fill="url(#lobeSimple)" stroke="#F59E0B" stroke-width="0.6" opacity="0.5"/>
      <!-- Base diffuse (broad) -->
      <path d="M 30,130 Q 40,108 60,90 Q 75,78 90,72 Q 110,78 125,90 Q 140,108 148,130 Z" fill="url(#lobeComplex1)" stroke="#EF4444" stroke-width="0.6" opacity="0.4"/>
      <!-- Subsurface scattered -->
      <path d="M 50,130 Q 55,118 65,108 Q 72,102 80,98 Q 88,102 94,112 Q 98,122 95,130 Z" fill="url(#lobeComplex2)" stroke="#8B5CF6" stroke-width="0.6" opacity="0.6"/>
      <!-- Inter-layer bounce -->
      <path d="M 110,130 Q 118,118 128,112 Q 136,110 140,114 Q 142,122 138,130 Z" fill="#D1FAE5" stroke="#10B981" stroke-width="0.6" opacity="0.5"/>
      <text x="120" y="58" font-size="6.5" fill="#92400E">coat</text>
      <text x="82" y="95" font-size="6.5" fill="#7C3AED">SSS</text>
      <text x="90" y="78" font-size="6.5" fill="#DC2626">base</text>
      <text x="135" y="108" font-size="6.5" fill="#059669">bounce</text>
    </g>
  </g>

  <!-- ================================================================ -->
  <!-- ROW 2: Tabulated BRDF has problems                               -->
  <!-- ================================================================ -->
  <g transform="translate(30, 290)">
    <rect x="0" y="0" width="900" height="170" rx="10" fill="#FFF7ED" stroke="#FED7AA" stroke-width="1"/>
    <text x="20" y="22" font-size="14" font-weight="700" fill="#9A3412">Problem 2: Storing it in a table doesn't scale</text>

    <!-- 4D size explosion visual -->
    <g transform="translate(30, 30)">
      <!-- 1D bar -->
      <rect x="0" y="100" width="12" height="18" rx="2" fill="#FED7AA" stroke="#F59E0B" stroke-width="0.8"/>
      <text x="6" y="124" text-anchor="middle" font-size="7" fill="#6B7280">&#x03B8;&#x1D62;</text>
      <text x="6" y="96" text-anchor="middle" font-size="7" fill="#9CA3AF">90</text>

      <!-- 2D grid -->
      <g transform="translate(30, 0)">
        <rect x="0" y="82" width="36" height="36" rx="2" fill="#FED7AA" stroke="#F59E0B" stroke-width="0.8"/>
        <line x1="12" y1="82" x2="12" y2="118" stroke="#F59E0B" stroke-width="0.3"/>
        <line x1="24" y1="82" x2="24" y2="118" stroke="#F59E0B" stroke-width="0.3"/>
        <line x1="0" y1="94" x2="36" y2="94" stroke="#F59E0B" stroke-width="0.3"/>
        <line x1="0" y1="106" x2="36" y2="106" stroke="#F59E0B" stroke-width="0.3"/>
        <text x="18" y="124" text-anchor="middle" font-size="7" fill="#6B7280">&#x03B8;&#x1D62;&#xD7;&#x03C6;&#x1D62;</text>
        <text x="18" y="78" text-anchor="middle" font-size="7" fill="#9CA3AF">8K</text>
      </g>

      <!-- 3D cube -->
      <g transform="translate(85, 0)">
        <!-- Back face -->
        <rect x="12" y="52" width="48" height="48" rx="0" fill="#FFEDD5" stroke="#F59E0B" stroke-width="0.6"/>
        <!-- Front face -->
        <rect x="0" y="66" width="48" height="48" rx="0" fill="#FED7AA" stroke="#F59E0B" stroke-width="0.8"/>
        <!-- Top face -->
        <polygon points="0,66 12,52 60,52 48,66" fill="#FDE68A" stroke="#F59E0B" stroke-width="0.6"/>
        <!-- Right face -->
        <polygon points="48,66 60,52 60,100 48,114" fill="#FDBA74" stroke="#F59E0B" stroke-width="0.6"/>
        <text x="24" y="124" text-anchor="middle" font-size="7" fill="#6B7280">+&#x03B8;&#x1D63;</text>
        <text x="24" y="46" text-anchor="middle" font-size="7" fill="#9CA3AF">729K</text>
      </g>

      <!-- 4D hypercube (two cubes connected) -->
      <g transform="translate(165, 0)">
        <!-- Back cube (ghost) -->
        <rect x="40" y="32" width="56" height="56" rx="0" fill="#FFEDD5" stroke="#F59E0B" stroke-width="0.4" opacity="0.5"/>
        <polygon points="28,46 40,32 96,32 84,46" fill="#FDE68A" stroke="#F59E0B" stroke-width="0.3" opacity="0.4"/>
        <polygon points="84,46 96,32 96,88 84,102" fill="#FDBA74" stroke="#F59E0B" stroke-width="0.3" opacity="0.4"/>
        <!-- Front cube -->
        <rect x="18" y="52" width="56" height="56" rx="0" fill="#FED7AA" stroke="#F59E0B" stroke-width="0.8"/>
        <polygon points="6,66 18,52 74,52 62,66" fill="#FDE68A" stroke="#F59E0B" stroke-width="0.6"/>
        <polygon points="62,66 74,52 74,108 62,122" fill="#FDBA74" stroke="#F59E0B" stroke-width="0.6"/>
        <!-- Connection lines (4th dim) -->
        <line x1="6" y1="66" x2="28" y2="46" stroke="#F59E0B" stroke-width="0.5" stroke-dasharray="2,2" opacity="0.6"/>
        <line x1="62" y1="66" x2="84" y2="46" stroke="#F59E0B" stroke-width="0.5" stroke-dasharray="2,2" opacity="0.6"/>
        <line x1="62" y1="122" x2="84" y2="102" stroke="#F59E0B" stroke-width="0.5" stroke-dasharray="2,2" opacity="0.6"/>
        <line x1="6" y1="122" x2="28" y2="102" stroke="#F59E0B" stroke-width="0.5" stroke-dasharray="2,2" opacity="0.6"/>
        <text x="45" y="124" text-anchor="middle" font-size="7" fill="#6B7280">+&#x03C6;&#x1D63;</text>
        <!-- Size label -->
        <rect x="15" y="0" width="80" height="20" rx="4" fill="#DC2626" opacity="0.9"/>
        <text x="55" y="14" text-anchor="middle" font-size="9" font-weight="700" fill="white">~33 MB</text>
      </g>

      <text x="140" y="138" text-anchor="middle" font-size="9" fill="#9A3412" font-weight="600">BRDF is 4D &#x2014; storage grows as N&#x2074;</text>
    </g>

    <!-- Interpolation artifact visual -->
    <g transform="translate(380, 38)">
      <text x="105" y="0" text-anchor="middle" font-size="10" font-weight="600" fill="#374151">Interpolation at grazing angles</text>

      <!-- Banded (tabulated) -->
      <text x="52" y="18" text-anchor="middle" font-size="8" fill="#9CA3AF">Table lookup</text>
      <!-- Stepped gradient showing banding -->
      <rect x="0" y="22" width="15" height="80" rx="0" fill="#1E3A8A"/>
      <rect x="15" y="22" width="15" height="80" rx="0" fill="#1E40AF"/>
      <rect x="30" y="22" width="15" height="80" rx="0" fill="#2563EB"/>
      <rect x="45" y="22" width="15" height="80" rx="0" fill="#3B82F6"/>
      <rect x="60" y="22" width="15" height="80" rx="0" fill="#60A5FA"/>
      <rect x="75" y="22" width="14" height="80" rx="0" fill="#93C5FD"/>
      <rect x="89" y="22" width="15" height="80" rx="0" fill="#BFDBFE"/>
      <!-- Band lines to emphasize discontinuity -->
      <line x1="15" y1="22" x2="15" y2="102" stroke="white" stroke-width="0.8" opacity="0.4"/>
      <line x1="30" y1="22" x2="30" y2="102" stroke="white" stroke-width="0.8" opacity="0.4"/>
      <line x1="45" y1="22" x2="45" y2="102" stroke="white" stroke-width="0.8" opacity="0.4"/>
      <line x1="60" y1="22" x2="60" y2="102" stroke="white" stroke-width="0.8" opacity="0.4"/>
      <line x1="75" y1="22" x2="75" y2="102" stroke="white" stroke-width="0.8" opacity="0.4"/>
      <line x1="89" y1="22" x2="89" y2="102" stroke="white" stroke-width="0.8" opacity="0.4"/>
      <rect x="0" y="22" width="104" height="80" rx="0" fill="none" stroke="#DC2626" stroke-width="1.5"/>
      <text x="52" y="116" text-anchor="middle" font-size="8" fill="#DC2626" font-weight="600">visible banding</text>

      <!-- Arrow -->
      <text x="135" y="64" text-anchor="middle" font-size="14" fill="#9CA3AF">&#x2192;</text>

      <!-- Smooth (MLP) -->
      <text x="210" y="18" text-anchor="middle" font-size="8" fill="#9CA3AF">MLP output</text>
      <rect x="158" y="22" width="104" height="80" rx="0" fill="url(#smoothGrad)"/>
      <rect x="158" y="22" width="104" height="80" rx="0" fill="none" stroke="#10B981" stroke-width="1.5"/>
      <text x="210" y="116" text-anchor="middle" font-size="8" fill="#10B981" font-weight="600">perfectly smooth</text>
    </g>

    <!-- Sampling problem visual -->
    <g transform="translate(700, 38)">
      <text x="90" y="0" text-anchor="middle" font-size="10" font-weight="600" fill="#374151">Importance sampling</text>

      <!-- Noisy samples (table) -->
      <text x="42" y="18" text-anchor="middle" font-size="8" fill="#9CA3AF">Table</text>
      <rect x="0" y="22" width="84" height="80" rx="4" fill="#F9FAFB" stroke="#D1D5DB" stroke-width="0.8"/>
      <!-- Scattered random dots (noisy) -->
      <circle cx="12" cy="45" r="2" fill="#DC2626" opacity="0.6"/>
      <circle cx="35" cy="30" r="2" fill="#DC2626" opacity="0.6"/>
      <circle cx="58" cy="68" r="2" fill="#DC2626" opacity="0.6"/>
      <circle cx="22" cy="82" r="2" fill="#DC2626" opacity="0.6"/>
      <circle cx="70" cy="40" r="2" fill="#DC2626" opacity="0.6"/>
      <circle cx="45" cy="90" r="2" fill="#DC2626" opacity="0.6"/>
      <circle cx="8" cy="70" r="2" fill="#DC2626" opacity="0.6"/>
      <circle cx="55" cy="50" r="2" fill="#DC2626" opacity="0.6"/>
      <circle cx="30" cy="58" r="2" fill="#DC2626" opacity="0.6"/>
      <circle cx="75" cy="78" r="2" fill="#DC2626" opacity="0.6"/>
      <circle cx="18" cy="35" r="2" fill="#DC2626" opacity="0.6"/>
      <circle cx="62" cy="28" r="2" fill="#DC2626" opacity="0.6"/>
      <circle cx="40" cy="75" r="2" fill="#DC2626" opacity="0.6"/>
      <text x="42" y="116" text-anchor="middle" font-size="8" fill="#DC2626" font-weight="600">uniform (noisy)</text>

      <!-- Concentrated samples (MLP with PDF) -->
      <text x="140" y="18" text-anchor="middle" font-size="8" fill="#9CA3AF">MLP + PDF</text>
      <rect x="98" y="22" width="84" height="80" rx="4" fill="#F9FAFB" stroke="#D1D5DB" stroke-width="0.8"/>
      <!-- BRDF lobe suggestion (light area) -->
      <ellipse cx="145" cy="50" rx="22" ry="28" fill="#DBEAFE" opacity="0.3"/>
      <!-- Concentrated samples where the lobe is -->
      <circle cx="138" cy="42" r="2" fill="#10B981" opacity="0.8"/>
      <circle cx="148" cy="38" r="2" fill="#10B981" opacity="0.8"/>
      <circle cx="142" cy="52" r="2" fill="#10B981" opacity="0.8"/>
      <circle cx="152" cy="48" r="2" fill="#10B981" opacity="0.8"/>
      <circle cx="135" cy="48" r="2" fill="#10B981" opacity="0.8"/>
      <circle cx="145" cy="60" r="2" fill="#10B981" opacity="0.8"/>
      <circle cx="150" cy="55" r="2" fill="#10B981" opacity="0.8"/>
      <circle cx="140" cy="35" r="2" fill="#10B981" opacity="0.8"/>
      <circle cx="155" cy="42" r="2" fill="#10B981" opacity="0.8"/>
      <circle cx="132" cy="56" r="2" fill="#10B981" opacity="0.8"/>
      <!-- A few outlier samples -->
      <circle cx="110" cy="80" r="1.5" fill="#10B981" opacity="0.4"/>
      <circle cx="170" cy="75" r="1.5" fill="#10B981" opacity="0.4"/>
      <circle cx="115" cy="30" r="1.5" fill="#10B981" opacity="0.4"/>
      <text x="140" y="116" text-anchor="middle" font-size="8" fill="#10B981" font-weight="600">importance (clean)</text>
    </g>
  </g>

  <!-- ================================================================ -->
  <!-- ROW 3: Neural BRDF solution                                       -->
  <!-- ================================================================ -->
  <g transform="translate(30, 480)">
    <rect x="0" y="0" width="900" height="130" rx="10" fill="#F0FDF4" stroke="#BBF7D0" stroke-width="1.2"/>
    <text x="20" y="22" font-size="14" font-weight="700" fill="#166534">Solution: Neural BRDF</text>

    <!-- Size comparison visual -->
    <g transform="translate(30, 38)">
      <!-- Giant block for table -->
      <rect x="0" y="0" width="120" height="70" rx="4" fill="#FED7AA" stroke="#F59E0B" stroke-width="1"/>
      <text x="60" y="30" text-anchor="middle" font-size="11" font-weight="700" fill="#9A3412">33 MB</text>
      <text x="60" y="46" text-anchor="middle" font-size="8" fill="#9A3412">Table</text>
      <text x="60" y="60" text-anchor="middle" font-size="7" fill="#B45309">per material</text>

      <!-- Tiny block for MLP -->
      <rect x="140" y="50" width="20" height="20" rx="3" fill="#BBF7D0" stroke="#10B981" stroke-width="1.2"/>
      <text x="150" y="64" text-anchor="middle" font-size="6" font-weight="700" fill="#166534">10K</text>

      <!-- Arrow with "3000x" -->
      <text x="105" y="88" text-anchor="middle" font-size="10" font-weight="700" fill="#166534">3000&#xD7; smaller</text>
    </g>

    <!-- MLP diagram -->
    <g transform="translate(280, 32)">
      <!-- Input -->
      <rect x="0" y="10" width="60" height="55" rx="5" fill="#D1FAE5" stroke="#10B981" stroke-width="1"/>
      <text x="30" y="32" text-anchor="middle" font-size="9" font-weight="600" fill="#065F46">n, v, l</text>
      <text x="30" y="48" text-anchor="middle" font-size="7" fill="#6B7280">9 floats</text>

      <line x1="65" y1="38" x2="90" y2="38" stroke="#6B7280" stroke-width="1" marker-end="url(#arrowG)"/>

      <!-- Network -->
      <g transform="translate(95, 0)">
        <rect x="0" y="0" width="180" height="75" rx="6" fill="#DBEAFE" stroke="#3B82F6" stroke-width="1.2"/>
        <!-- Layer columns -->
        <circle cx="30" cy="15" r="4" fill="#3B82F6"/><circle cx="30" cy="27" r="4" fill="#3B82F6"/>
        <circle cx="30" cy="39" r="4" fill="#3B82F6"/><circle cx="30" cy="51" r="4" fill="#3B82F6"/>
        <circle cx="30" cy="63" r="4" fill="#3B82F6"/>
        <circle cx="70" cy="15" r="4" fill="#60A5FA"/><circle cx="70" cy="27" r="4" fill="#60A5FA"/>
        <circle cx="70" cy="39" r="4" fill="#60A5FA"/><circle cx="70" cy="51" r="4" fill="#60A5FA"/>
        <circle cx="70" cy="63" r="4" fill="#60A5FA"/>
        <circle cx="110" cy="15" r="4" fill="#8B5CF6"/><circle cx="110" cy="27" r="4" fill="#8B5CF6"/>
        <circle cx="110" cy="39" r="4" fill="#8B5CF6"/><circle cx="110" cy="51" r="4" fill="#8B5CF6"/>
        <circle cx="110" cy="63" r="4" fill="#8B5CF6"/>
        <circle cx="150" cy="27" r="4" fill="#EF4444"/><circle cx="150" cy="39" r="4" fill="#EF4444"/>
        <circle cx="150" cy="51" r="4" fill="#EF4444"/>
        <!-- Some connections -->
        <line x1="35" y1="15" x2="65" y2="15" stroke="#BFDBFE" stroke-width="0.5"/>
        <line x1="35" y1="27" x2="65" y2="27" stroke="#BFDBFE" stroke-width="0.5"/>
        <line x1="35" y1="39" x2="65" y2="39" stroke="#BFDBFE" stroke-width="0.5"/>
        <line x1="35" y1="15" x2="65" y2="27" stroke="#BFDBFE" stroke-width="0.4"/>
        <line x1="35" y1="27" x2="65" y2="15" stroke="#BFDBFE" stroke-width="0.4"/>
        <line x1="35" y1="39" x2="65" y2="51" stroke="#BFDBFE" stroke-width="0.4"/>
        <line x1="75" y1="15" x2="105" y2="15" stroke="#DDD6FE" stroke-width="0.5"/>
        <line x1="75" y1="27" x2="105" y2="27" stroke="#DDD6FE" stroke-width="0.5"/>
        <line x1="75" y1="39" x2="105" y2="39" stroke="#DDD6FE" stroke-width="0.5"/>
        <line x1="75" y1="15" x2="105" y2="27" stroke="#DDD6FE" stroke-width="0.4"/>
        <line x1="115" y1="27" x2="145" y2="27" stroke="#FECACA" stroke-width="0.5"/>
        <line x1="115" y1="39" x2="145" y2="39" stroke="#FECACA" stroke-width="0.5"/>
        <line x1="115" y1="51" x2="145" y2="51" stroke="#FECACA" stroke-width="0.5"/>
      </g>

      <line x1="280" y1="38" x2="305" y2="38" stroke="#6B7280" stroke-width="1" marker-end="url(#arrowG)"/>

      <!-- Output -->
      <rect x="310" y="10" width="60" height="55" rx="5" fill="#FFE4E6" stroke="#EF4444" stroke-width="1"/>
      <text x="340" y="32" text-anchor="middle" font-size="9" font-weight="600" fill="#9F1239">BRDF</text>
      <text x="340" y="48" text-anchor="middle" font-size="7" fill="#6B7280">3 floats</text>
    </g>

    <!-- Key properties (icons + short labels) -->
    <g transform="translate(690, 34)">
      <rect x="0" y="0" width="195" height="80" rx="6" fill="white" stroke="#BBF7D0" stroke-width="0.8"/>
      <circle cx="18" cy="16" r="6" fill="#10B981"/><text x="18" y="20" text-anchor="middle" font-size="8" fill="white" font-weight="700">C</text>
      <text x="30" y="20" font-size="10" font-weight="600" fill="#166534">Compact</text>
      <text x="100" y="20" font-size="8" fill="#6B7280">fits in L2 cache</text>

      <circle cx="18" cy="36" r="6" fill="#10B981"/><text x="18" y="40" text-anchor="middle" font-size="8" fill="white" font-weight="700">S</text>
      <text x="30" y="40" font-size="10" font-weight="600" fill="#166534">Smooth</text>
      <text x="100" y="40" font-size="8" fill="#6B7280">no grid artifacts</text>

      <circle cx="18" cy="56" r="6" fill="#10B981"/><text x="18" y="60" text-anchor="middle" font-size="7.5" fill="white" font-weight="700">&#x2202;</text>
      <text x="30" y="60" font-size="10" font-weight="600" fill="#166534">Differentiable</text>
      <text x="115" y="60" font-size="8" fill="#6B7280">trainable</text>

      <circle cx="18" cy="74" r="6" fill="#10B981"/><text x="18" y="78" text-anchor="middle" font-size="8" fill="white" font-weight="700">&#x222B;</text>
      <text x="30" y="78" font-size="10" font-weight="600" fill="#166534">Sampleable</text>
      <text x="108" y="78" font-size="8" fill="#6B7280">learned PDF</text>
    </g>
  </g>

  <!-- Bottom line -->
  <text x="480" y="640" text-anchor="middle" font-size="12" font-weight="600" fill="#374151">A tiny MLP learns what years of manual BRDF engineering could not capture</text>
  <text x="480" y="658" text-anchor="middle" font-size="10" fill="#6B7280">Shipping today: RTX Neural Shaders SDK &#x2022; 10x faster than layered materials &#x2022; Film-quality appearance</text>

  <text x="930" y="672" text-anchor="end" font-size="10" fill="#D1D5DB">3</text>
</svg>
