<?xml version="1.0" encoding="UTF-8"?>
<svg xmlns="http://www.w3.org/2000/svg" viewBox="0 0 960 720" font-family="'Segoe UI', system-ui, Arial, sans-serif">
  <defs>
    <marker id="aRight" viewBox="0 0 10 10" refX="9" refY="5" markerWidth="7" markerHeight="7" orient="auto-start-reverse">
      <path d="M 0 1 L 9 5 L 0 9 z" fill="#6B7280"/>
    </marker>
  </defs>

  <rect width="960" height="720" fill="white" rx="8"/>

  <!-- Title -->
  <text x="480" y="36" text-anchor="middle" font-size="22" font-weight="700" fill="#111827">Building an MLP from Layers</text>
  <text x="480" y="56" text-anchor="middle" font-size="13" fill="#6B7280">Using slang.neural building blocks to compose a texture-replacement MLP</text>

  <!-- ================================================================ -->
  <!-- Layer anatomy (top section, compact)                              -->
  <!-- ================================================================ -->
  <g transform="translate(40, 72)">
    <rect x="0" y="0" width="880" height="108" rx="10" fill="#F0F9FF" stroke="#BFDBFE" stroke-width="1"/>
    <text x="440" y="18" text-anchor="middle" font-size="12" font-weight="700" fill="#1E40AF">Each FFLayer computes:  h = Activation( W &#x00B7; x + b )</text>

    <!-- Input vector -->
    <g transform="translate(30, 30)">
      <rect x="0" y="0" width="70" height="62" rx="5" fill="#D1FAE5" stroke="#10B981" stroke-width="1.2"/>
      <text x="35" y="16" text-anchor="middle" font-size="9" font-weight="700" fill="#065F46">input x</text>
      <rect x="18" y="22" width="34" height="8" rx="2" fill="#A7F3D0"/>
      <rect x="18" y="32" width="34" height="8" rx="2" fill="#6EE7B7"/>
      <rect x="18" y="42" width="34" height="8" rx="2" fill="#34D399"/>
      <text x="35" y="58" text-anchor="middle" font-size="7" fill="#6B7280">IVector&lt;T&gt;</text>
    </g>

    <line x1="104" y1="62" x2="134" y2="62" stroke="#6B7280" stroke-width="1.2" marker-end="url(#aRight)"/>

    <!-- Weight matrix -->
    <g transform="translate(140, 28)">
      <rect x="0" y="0" width="130" height="66" rx="5" fill="#DBEAFE" stroke="#3B82F6" stroke-width="1.2"/>
      <text x="65" y="16" text-anchor="middle" font-size="9" font-weight="700" fill="#1E40AF">W &#x00B7; x + b</text>
      <g transform="translate(10, 22)">
        <rect x="0" y="0" width="11" height="11" rx="1" fill="#93C5FD"/>
        <rect x="13" y="0" width="11" height="11" rx="1" fill="#60A5FA"/>
        <rect x="26" y="0" width="11" height="11" rx="1" fill="#3B82F6"/>
        <rect x="0" y="13" width="11" height="11" rx="1" fill="#60A5FA"/>
        <rect x="13" y="13" width="11" height="11" rx="1" fill="#3B82F6"/>
        <rect x="26" y="13" width="11" height="11" rx="1" fill="#93C5FD"/>
        <rect x="0" y="26" width="11" height="11" rx="1" fill="#3B82F6"/>
        <rect x="13" y="26" width="11" height="11" rx="1" fill="#60A5FA"/>
        <rect x="26" y="26" width="11" height="11" rx="1" fill="#93C5FD"/>
      </g>
      <text x="62" y="42" font-size="8" fill="#1E40AF">+</text>
      <g transform="translate(70, 22)">
        <rect x="0" y="0" width="11" height="11" rx="1" fill="#BFDBFE"/>
        <rect x="0" y="13" width="11" height="11" rx="1" fill="#BFDBFE"/>
        <rect x="0" y="26" width="11" height="11" rx="1" fill="#BFDBFE"/>
      </g>
      <text x="65" y="62" text-anchor="middle" font-size="7" fill="#6B7280">IPointerLikeAddress</text>
    </g>

    <line x1="274" y1="62" x2="304" y2="62" stroke="#6B7280" stroke-width="1.2" marker-end="url(#aRight)"/>

    <!-- Activation -->
    <g transform="translate(310, 30)">
      <rect x="0" y="0" width="100" height="62" rx="5" fill="#FEF3C7" stroke="#F59E0B" stroke-width="1.2"/>
      <text x="50" y="15" text-anchor="middle" font-size="9" font-weight="700" fill="#92400E">Activation</text>
      <g transform="translate(22, 22)">
        <line x1="0" y1="28" x2="28" y2="28" stroke="#F59E0B" stroke-width="2" stroke-linecap="round"/>
        <line x1="28" y1="28" x2="56" y2="4" stroke="#F59E0B" stroke-width="2" stroke-linecap="round"/>
        <line x1="28" y1="0" x2="28" y2="34" stroke="#D1D5DB" stroke-width="0.6"/>
        <line x1="0" y1="28" x2="56" y2="28" stroke="#D1D5DB" stroke-width="0.6"/>
      </g>
      <text x="50" y="58" text-anchor="middle" font-size="7" fill="#6B7280">IActivation&lt;T&gt;</text>
    </g>

    <line x1="414" y1="62" x2="444" y2="62" stroke="#6B7280" stroke-width="1.2" marker-end="url(#aRight)"/>

    <!-- Output vector -->
    <g transform="translate(450, 30)">
      <rect x="0" y="0" width="70" height="62" rx="5" fill="#EDE9FE" stroke="#8B5CF6" stroke-width="1.2"/>
      <text x="35" y="16" text-anchor="middle" font-size="9" font-weight="700" fill="#5B21B6">output h</text>
      <rect x="18" y="22" width="34" height="8" rx="2" fill="#DDD6FE"/>
      <rect x="18" y="32" width="34" height="8" rx="2" fill="#C4B5FD"/>
      <rect x="18" y="42" width="34" height="8" rx="2" fill="#A78BFA"/>
      <text x="35" y="58" text-anchor="middle" font-size="7" fill="#6B7280">IVector&lt;T&gt;</text>
    </g>

    <!-- Building blocks legend -->
    <g transform="translate(560, 26)">
      <rect x="0" y="0" width="300" height="70" rx="5" fill="white" stroke="#E5E7EB" stroke-width="0.8"/>
      <text x="150" y="15" text-anchor="middle" font-size="9" font-weight="700" fill="#374151">Building Blocks (slang.neural)</text>
      <text x="10" y="30" font-size="8" fill="#065F46" font-weight="600">IVector&lt;T&gt;</text>
      <text x="85" y="30" font-size="8" fill="#6B7280">InlineVector, WaveTangledVector</text>
      <text x="10" y="43" font-size="8" fill="#5B21B6" font-weight="600">IPointerLikeAddress&lt;T&gt;</text>
      <text x="135" y="43" font-size="8" fill="#6B7280">BindlessAddress, PointerAddress</text>
      <text x="10" y="56" font-size="8" fill="#92400E" font-weight="600">IActivation&lt;T&gt;</text>
      <text x="85" y="56" font-size="8" fill="#6B7280">ReLU, Sigmoid, Identity, ...</text>
      <text x="10" y="66" font-size="8" fill="#1E40AF" font-weight="600">FFLayer&lt;...&gt;</text>
      <text x="68" y="66" font-size="8" fill="#6B7280">composes all of the above</text>
    </g>
  </g>

  <!-- ================================================================ -->
  <!-- Pseudocode section                                                -->
  <!-- ================================================================ -->
  <g transform="translate(40, 198)">
    <rect x="0" y="0" width="880" height="390" rx="10" fill="#1E1E2E" stroke="#374151" stroke-width="1"/>

    <!-- Code header -->
    <rect x="0" y="0" width="880" height="28" rx="10" fill="#2D2D3F"/>
    <rect x="0" y="14" width="880" height="14" fill="#2D2D3F"/>
    <circle cx="18" cy="14" r="5" fill="#EF4444" opacity="0.8"/>
    <circle cx="34" cy="14" r="5" fill="#F59E0B" opacity="0.8"/>
    <circle cx="50" cy="14" r="5" fill="#10B981" opacity="0.8"/>
    <text x="440" y="18" text-anchor="middle" font-size="10" fill="#9CA3AF" font-weight="600">neural-texture-mlp.slang</text>

    <!-- Line numbers gutter -->
    <rect x="0" y="28" width="36" height="362" fill="#24243A" rx="0"/>

    <!-- Code content -->
    <g font-family="'Cascadia Code', 'JetBrains Mono', 'Courier New', monospace" font-size="11">

      <!-- Line 1: import -->
      <text x="14" y="48" text-anchor="middle" fill="#4A4A6A">1</text>
      <text x="44" y="48" fill="#C792EA" font-weight="600">import</text>
      <text x="97" y="48" fill="#C3E88D">slang.neural</text>
      <text x="185" y="48" fill="#89DDFF">;</text>

      <!-- Line 2: blank -->
      <text x="14" y="65" text-anchor="middle" fill="#4A4A6A">2</text>

      <!-- Line 3: comment -->
      <text x="14" y="82" text-anchor="middle" fill="#4A4A6A">3</text>
      <text x="44" y="82" fill="#546E7A" font-style="italic">// Define types: (u,v) &#x2192; 64 hidden &#x2192; (r,g,b)</text>

      <!-- Line 4: typealias Vec2 -->
      <text x="14" y="99" text-anchor="middle" fill="#4A4A6A">4</text>
      <text x="44" y="99" fill="#C792EA" font-weight="600">typealias</text>
      <text x="119" y="99" fill="#FFCB6B">Vec2</text>
      <text x="152" y="99" fill="#89DDFF">=</text>
      <text x="165" y="99" fill="#82AAFF">InlineVector</text>
      <text x="249" y="99" fill="#89DDFF">&lt;</text>
      <text x="258" y="99" fill="#F78C6C">float</text>
      <text x="289" y="99" fill="#89DDFF">,</text>
      <text x="299" y="99" fill="#F78C6C">2</text>
      <text x="308" y="99" fill="#89DDFF">&gt;;</text>

      <!-- Line 5: typealias Vec64 -->
      <text x="14" y="116" text-anchor="middle" fill="#4A4A6A">5</text>
      <text x="44" y="116" fill="#C792EA" font-weight="600">typealias</text>
      <text x="119" y="116" fill="#FFCB6B">Vec64</text>
      <text x="158" y="116" fill="#89DDFF">=</text>
      <text x="171" y="116" fill="#82AAFF">InlineVector</text>
      <text x="255" y="116" fill="#89DDFF">&lt;</text>
      <text x="264" y="116" fill="#F78C6C">float</text>
      <text x="295" y="116" fill="#89DDFF">,</text>
      <text x="305" y="116" fill="#F78C6C">64</text>
      <text x="320" y="116" fill="#89DDFF">&gt;;</text>

      <!-- Line 6: typealias Vec3 -->
      <text x="14" y="133" text-anchor="middle" fill="#4A4A6A">6</text>
      <text x="44" y="133" fill="#C792EA" font-weight="600">typealias</text>
      <text x="119" y="133" fill="#FFCB6B">Vec3</text>
      <text x="152" y="133" fill="#89DDFF">=</text>
      <text x="165" y="133" fill="#82AAFF">InlineVector</text>
      <text x="249" y="133" fill="#89DDFF">&lt;</text>
      <text x="258" y="133" fill="#F78C6C">float</text>
      <text x="289" y="133" fill="#89DDFF">,</text>
      <text x="299" y="133" fill="#F78C6C">3</text>
      <text x="308" y="133" fill="#89DDFF">&gt;;</text>

      <!-- Line 7: typealias Addr -->
      <text x="14" y="150" text-anchor="middle" fill="#4A4A6A">7</text>
      <text x="44" y="150" fill="#C792EA" font-weight="600">typealias</text>
      <text x="119" y="150" fill="#FFCB6B">Addr</text>
      <text x="152" y="150" fill="#89DDFF">=</text>
      <text x="165" y="150" fill="#82AAFF">BindlessAddress</text>
      <text x="272" y="150" fill="#89DDFF">&lt;</text>
      <text x="281" y="150" fill="#F78C6C">float</text>
      <text x="312" y="150" fill="#89DDFF">&gt;;</text>

      <!-- Line 8: blank -->
      <text x="14" y="167" text-anchor="middle" fill="#4A4A6A">8</text>

      <!-- Line 9: comment -->
      <text x="14" y="184" text-anchor="middle" fill="#4A4A6A">9</text>
      <text x="44" y="184" fill="#546E7A" font-style="italic">// Build layers: FFLayer&lt;T, InVec, OutVec, Layout, Activation&gt;</text>

      <!-- Line 10: Layer1 -->
      <text x="10" y="201" text-anchor="middle" fill="#4A4A6A">10</text>
      <text x="44" y="201" fill="#C792EA" font-weight="600">typealias</text>
      <text x="119" y="201" fill="#FFCB6B">Layer1</text>
      <text x="160" y="201" fill="#89DDFF">=</text>
      <text x="173" y="201" fill="#82AAFF">FFLayer</text>
      <text x="221" y="201" fill="#89DDFF">&lt;</text>
      <text x="230" y="201" fill="#F78C6C">float</text>
      <text x="261" y="201" fill="#89DDFF">,</text>
      <text x="270" y="201" fill="#FFCB6B">Vec2</text>
      <text x="298" y="201" fill="#89DDFF">,</text>
      <text x="307" y="201" fill="#FFCB6B">Vec64</text>
      <text x="340" y="201" fill="#89DDFF">,</text>
      <text x="349" y="201" fill="#82AAFF">LinearLayout</text>
      <text x="431" y="201" fill="#89DDFF">,</text>
      <text x="440" y="201" fill="#82AAFF">ReLU</text>
      <text x="466" y="201" fill="#89DDFF">&lt;</text>
      <text x="475" y="201" fill="#F78C6C">float</text>
      <text x="506" y="201" fill="#89DDFF">&gt;&gt;;</text>

      <!-- Line 11: Layer2 -->
      <text x="10" y="218" text-anchor="middle" fill="#4A4A6A">11</text>
      <text x="44" y="218" fill="#C792EA" font-weight="600">typealias</text>
      <text x="119" y="218" fill="#FFCB6B">Layer2</text>
      <text x="160" y="218" fill="#89DDFF">=</text>
      <text x="173" y="218" fill="#82AAFF">FFLayer</text>
      <text x="221" y="218" fill="#89DDFF">&lt;</text>
      <text x="230" y="218" fill="#F78C6C">float</text>
      <text x="261" y="218" fill="#89DDFF">,</text>
      <text x="270" y="218" fill="#FFCB6B">Vec64</text>
      <text x="303" y="218" fill="#89DDFF">,</text>
      <text x="312" y="218" fill="#FFCB6B">Vec64</text>
      <text x="345" y="218" fill="#89DDFF">,</text>
      <text x="354" y="218" fill="#82AAFF">LinearLayout</text>
      <text x="436" y="218" fill="#89DDFF">,</text>
      <text x="445" y="218" fill="#82AAFF">ReLU</text>
      <text x="471" y="218" fill="#89DDFF">&lt;</text>
      <text x="480" y="218" fill="#F78C6C">float</text>
      <text x="511" y="218" fill="#89DDFF">&gt;&gt;;</text>

      <!-- Line 12: OutLayer -->
      <text x="10" y="235" text-anchor="middle" fill="#4A4A6A">12</text>
      <text x="44" y="235" fill="#C792EA" font-weight="600">typealias</text>
      <text x="119" y="235" fill="#FFCB6B">OutLayer</text>
      <text x="175" y="235" fill="#89DDFF">=</text>
      <text x="188" y="235" fill="#82AAFF">FFLayer</text>
      <text x="236" y="235" fill="#89DDFF">&lt;</text>
      <text x="245" y="235" fill="#F78C6C">float</text>
      <text x="276" y="235" fill="#89DDFF">,</text>
      <text x="285" y="235" fill="#FFCB6B">Vec64</text>
      <text x="318" y="235" fill="#89DDFF">,</text>
      <text x="327" y="235" fill="#FFCB6B">Vec3</text>
      <text x="355" y="235" fill="#89DDFF">,</text>
      <text x="364" y="235" fill="#82AAFF">LinearLayout</text>
      <text x="446" y="235" fill="#89DDFF">,</text>
      <text x="455" y="235" fill="#82AAFF">IdentityActivation</text>
      <text x="570" y="235" fill="#89DDFF">&lt;</text>
      <text x="579" y="235" fill="#F78C6C">float</text>
      <text x="610" y="235" fill="#89DDFF">&gt;&gt;;</text>

      <!-- Line 13: blank -->
      <text x="10" y="252" text-anchor="middle" fill="#4A4A6A">13</text>

      <!-- Line 14: comment -->
      <text x="10" y="269" text-anchor="middle" fill="#4A4A6A">14</text>
      <text x="44" y="269" fill="#546E7A" font-style="italic">// Forward pass: chain layers, advance offset after each</text>

      <!-- Line 15: [Differentiable] -->
      <text x="10" y="286" text-anchor="middle" fill="#4A4A6A">15</text>
      <text x="44" y="286" fill="#89DDFF">[</text>
      <text x="51" y="286" fill="#C792EA" font-weight="600">Differentiable</text>
      <text x="146" y="286" fill="#89DDFF">]</text>

      <!-- Line 16: function signature -->
      <text x="10" y="303" text-anchor="middle" fill="#4A4A6A">16</text>
      <text x="44" y="303" fill="#FFCB6B" font-weight="600">Vec3</text>
      <text x="74" y="303" fill="#82AAFF">neuralTexture</text>
      <text x="165" y="303" fill="#89DDFF">(</text>
      <text x="172" y="303" fill="#FFCB6B">Vec2</text>
      <text x="200" y="303" fill="#BFC7D5">uv</text>
      <text x="215" y="303" fill="#89DDFF">,</text>
      <text x="225" y="303" fill="#FFCB6B">Addr</text>
      <text x="255" y="303" fill="#BFC7D5">params</text>
      <text x="294" y="303" fill="#89DDFF">)</text>
      <text x="302" y="303" fill="#89DDFF">{</text>

      <!-- Line 17: h1 = Layer1 -->
      <text x="10" y="320" text-anchor="middle" fill="#4A4A6A">17</text>
      <text x="64" y="320" fill="#C792EA" font-weight="600">let</text>
      <text x="85" y="320" fill="#BFC7D5">h1</text>
      <text x="101" y="320" fill="#89DDFF">=</text>
      <text x="113" y="320" fill="#FFCB6B">Layer1</text>
      <text x="154" y="320" fill="#89DDFF">().</text>
      <text x="172" y="320" fill="#82AAFF">eval</text>
      <text x="198" y="320" fill="#89DDFF">(</text>
      <text x="205" y="320" fill="#BFC7D5">uv</text>
      <text x="220" y="320" fill="#89DDFF">,</text>
      <text x="230" y="320" fill="#BFC7D5">params</text>
      <text x="269" y="320" fill="#89DDFF">);</text>

      <!-- annotate: 2 -> 64 -->
      <text x="665" y="320" fill="#546E7A" font-style="italic" font-size="10">// 2 &#x2192; 64, ReLU</text>

      <!-- Line 18: h2 = Layer2 -->
      <text x="10" y="337" text-anchor="middle" fill="#4A4A6A">18</text>
      <text x="64" y="337" fill="#C792EA" font-weight="600">let</text>
      <text x="85" y="337" fill="#BFC7D5">h2</text>
      <text x="101" y="337" fill="#89DDFF">=</text>
      <text x="113" y="337" fill="#FFCB6B">Layer2</text>
      <text x="154" y="337" fill="#89DDFF">().</text>
      <text x="172" y="337" fill="#82AAFF">eval</text>
      <text x="198" y="337" fill="#89DDFF">(</text>
      <text x="205" y="337" fill="#BFC7D5">h1</text>
      <text x="220" y="337" fill="#89DDFF">,</text>
      <text x="230" y="337" fill="#BFC7D5">params</text>
      <text x="269" y="337" fill="#89DDFF">.</text>
      <text x="275" y="337" fill="#82AAFF">getOffset</text>
      <text x="336" y="337" fill="#89DDFF">(</text>
      <text x="343" y="337" fill="#F78C6C">Layer1.ParameterCount</text>
      <text x="485" y="337" fill="#89DDFF">));</text>

      <!-- annotate: 64 -> 64 -->
      <text x="665" y="337" fill="#546E7A" font-style="italic" font-size="10">// 64 &#x2192; 64, ReLU</text>

      <!-- Line 19: return OutLayer -->
      <text x="10" y="354" text-anchor="middle" fill="#4A4A6A">19</text>
      <text x="64" y="354" fill="#C792EA" font-weight="600">return</text>
      <text x="109" y="354" fill="#FFCB6B">OutLayer</text>
      <text x="165" y="354" fill="#89DDFF">().</text>
      <text x="183" y="354" fill="#82AAFF">eval</text>
      <text x="209" y="354" fill="#89DDFF">(</text>
      <text x="216" y="354" fill="#BFC7D5">h2</text>
      <text x="231" y="354" fill="#89DDFF">,</text>
      <text x="241" y="354" fill="#BFC7D5">params</text>
      <text x="280" y="354" fill="#89DDFF">.</text>
      <text x="286" y="354" fill="#82AAFF">getOffset</text>
      <text x="347" y="354" fill="#89DDFF">(</text>
      <text x="354" y="354" fill="#F78C6C">Layer1.ParameterCount + Layer2.ParameterCount</text>
      <text x="658" y="354" fill="#89DDFF">));</text>

      <!-- annotate: 64 -> 3 -->
      <text x="700" y="354" fill="#546E7A" font-style="italic" font-size="10">// 64&#x2192;3</text>

      <!-- Line 20: close -->
      <text x="10" y="371" text-anchor="middle" fill="#4A4A6A">20</text>
      <text x="44" y="371" fill="#89DDFF">}</text>
    </g>

    <!-- Side annotation cards -->
    <g transform="translate(700, 42)">
      <rect x="0" y="0" width="170" height="62" rx="5" fill="#2D2D3F" stroke="#3B82F6" stroke-width="1"/>
      <text x="85" y="16" text-anchor="middle" font-size="9" font-weight="700" fill="#82AAFF">Input: (u, v)</text>
      <text x="85" y="32" text-anchor="middle" font-size="9" fill="#89DDFF">&#x2193;</text>
      <text x="85" y="46" text-anchor="middle" font-size="9" font-weight="700" fill="#EF4444">Output: (r, g, b)</text>
      <text x="85" y="58" text-anchor="middle" font-size="8" fill="#546E7A">UV coords &#x2192; learned color</text>
    </g>

    <g transform="translate(700, 114)">
      <rect x="0" y="0" width="170" height="50" rx="5" fill="#2D2D3F" stroke="#8B5CF6" stroke-width="1"/>
      <text x="85" y="16" text-anchor="middle" font-size="9" font-weight="700" fill="#C792EA">Parameters</text>
      <text x="85" y="32" text-anchor="middle" font-size="8" fill="#BFC7D5">2&#xD7;64 + 64&#xD7;64 + 64&#xD7;3</text>
      <text x="85" y="44" text-anchor="middle" font-size="8" fill="#546E7A">+ biases = ~4.5K floats</text>
    </g>

    <g transform="translate(700, 174)">
      <rect x="0" y="0" width="170" height="50" rx="5" fill="#2D2D3F" stroke="#10B981" stroke-width="1"/>
      <text x="85" y="16" text-anchor="middle" font-size="9" font-weight="700" fill="#A7F3D0">Differentiable</text>
      <text x="85" y="32" text-anchor="middle" font-size="8" fill="#BFC7D5">bwd_diff(neuralTexture)</text>
      <text x="85" y="44" text-anchor="middle" font-size="8" fill="#546E7A">auto-generates backward pass</text>
    </g>
  </g>

  <!-- ================================================================ -->
  <!-- Bottom: three takeaway cards                                      -->
  <!-- ================================================================ -->
  <g transform="translate(40, 640)">
    <rect x="0" y="0" width="280" height="50" rx="6" fill="#ECFDF5" stroke="#10B981" stroke-width="1"/>
    <text x="140" y="18" text-anchor="middle" font-size="10" font-weight="700" fill="#065F46">Composable</text>
    <text x="140" y="34" text-anchor="middle" font-size="9" fill="#6B7280">Swap InlineVector &#x2192; WaveTangledVector</text>
    <text x="140" y="46" text-anchor="middle" font-size="9" fill="#6B7280">for Tensor Core acceleration</text>

    <rect x="300" y="0" width="280" height="50" rx="6" fill="#EFF6FF" stroke="#3B82F6" stroke-width="1"/>
    <text x="440" y="18" text-anchor="middle" font-size="10" font-weight="700" fill="#1E40AF">Portable</text>
    <text x="440" y="34" text-anchor="middle" font-size="9" fill="#6B7280">Same code compiles to</text>
    <text x="440" y="46" text-anchor="middle" font-size="9" fill="#6B7280">Vulkan SPIR-V, DirectX, CUDA, Metal</text>

    <rect x="600" y="0" width="280" height="50" rx="6" fill="#F5F3FF" stroke="#8B5CF6" stroke-width="1"/>
    <text x="740" y="18" text-anchor="middle" font-size="10" font-weight="700" fill="#5B21B6">Trainable</text>
    <text x="740" y="34" text-anchor="middle" font-size="9" fill="#6B7280">Autodiff generates backward pass</text>
    <text x="740" y="46" text-anchor="middle" font-size="9" fill="#6B7280">for gradient descent training</text>
  </g>

  <text x="930" y="710" text-anchor="end" font-size="10" fill="#D1D5DB">5</text>
</svg>
