<?xml version="1.0" encoding="UTF-8"?>
<svg xmlns="http://www.w3.org/2000/svg" viewBox="0 0 960 680" font-family="'Segoe UI', system-ui, Arial, sans-serif">
  <defs>
    <marker id="arrowGray" viewBox="0 0 10 10" refX="9" refY="5" markerWidth="7" markerHeight="7" orient="auto-start-reverse">
      <path d="M 0 1 L 9 5 L 0 9 z" fill="#6B7280"/>
    </marker>
  </defs>

  <rect width="960" height="680" fill="white" rx="8"/>

  <!-- TITLE -->
  <text x="480" y="28" text-anchor="middle" font-size="20" font-weight="700" fill="#111827">Step 1: Why Elevate to D+1 Dimensions?</text>
  <text x="480" y="48" text-anchor="middle" font-size="11" fill="#6B7280">Using 3 symmetric coordinates to turn simplex lookup into sorting (D = 2 example)</text>

  <!-- ================================================================ -->
  <!-- LEFT PANEL: The Challenge                                        -->
  <!-- ================================================================ -->
  <g transform="translate(15, 65)">
    <rect x="0" y="0" width="435" height="305" rx="8" fill="#FEF2F2" stroke="#EF4444" stroke-width="1.2"/>
    <rect x="8" y="6" width="80" height="18" rx="9" fill="#EF4444"/>
    <text x="48" y="19" text-anchor="middle" font-size="9" fill="white" font-weight="700">Challenge</text>
    <text x="270" y="20" text-anchor="middle" font-size="13" font-weight="700" fill="#9F1239">Triangles in 2D Coordinates</text>

    <!-- Triangular grid with rectangular grid overlay -->
    <g transform="translate(28, 44)">
      <!-- Triangular tiling edges (warm red) -->
      <path d="M0,0 L168,0 M14,26 L154,26 M0,52 L168,52 M14,78 L154,78 M0,104 L168,104" stroke="#FECACA" stroke-width="0.8" fill="none"/>
      <!-- Diagonals row 0 to 1 -->
      <path d="M0,0 L14,26 M28,0 L14,26 M28,0 L42,26 M56,0 L42,26 M56,0 L70,26 M84,0 L70,26 M84,0 L98,26 M112,0 L98,26 M112,0 L126,26 M140,0 L126,26 M140,0 L154,26 M168,0 L154,26" stroke="#FECACA" stroke-width="0.8" fill="none"/>
      <!-- Diagonals row 1 to 2 -->
      <path d="M14,26 L0,52 M14,26 L28,52 M42,26 L28,52 M42,26 L56,52 M70,26 L56,52 M70,26 L84,52 M98,26 L84,52 M98,26 L112,52 M126,26 L112,52 M126,26 L140,52 M154,26 L140,52 M154,26 L168,52" stroke="#FECACA" stroke-width="0.8" fill="none"/>
      <!-- Diagonals row 2 to 3 -->
      <path d="M0,52 L14,78 M28,52 L14,78 M28,52 L42,78 M56,52 L42,78 M56,52 L70,78 M84,52 L70,78 M84,52 L98,78 M112,52 L98,78 M112,52 L126,78 M140,52 L126,78 M140,52 L154,78 M168,52 L154,78" stroke="#FECACA" stroke-width="0.8" fill="none"/>
      <!-- Diagonals row 3 to 4 -->
      <path d="M14,78 L0,104 M14,78 L28,104 M42,78 L28,104 M42,78 L56,104 M70,78 L56,104 M70,78 L84,104 M98,78 L84,104 M98,78 L112,104 M126,78 L112,104 M126,78 L140,104 M154,78 L140,104 M154,78 L168,104" stroke="#FECACA" stroke-width="0.8" fill="none"/>

      <!-- Rectangular grid overlay (dashed gray, misaligned with triangles) -->
      <line x1="42" y1="-2" x2="42" y2="106" stroke="#9CA3AF" stroke-width="0.6" stroke-dasharray="3,3"/>
      <line x1="84" y1="-2" x2="84" y2="106" stroke="#9CA3AF" stroke-width="0.6" stroke-dasharray="3,3"/>
      <line x1="126" y1="-2" x2="126" y2="106" stroke="#9CA3AF" stroke-width="0.6" stroke-dasharray="3,3"/>
      <line x1="-2" y1="35" x2="170" y2="35" stroke="#9CA3AF" stroke-width="0.6" stroke-dasharray="3,3"/>
      <line x1="-2" y1="70" x2="170" y2="70" stroke="#9CA3AF" stroke-width="0.6" stroke-dasharray="3,3"/>

      <!-- Highlighted triangle: (28,52)-(56,52)-(42,26) upward -->
      <polygon points="28,52 56,52 42,26" fill="#FCA5A5" fill-opacity="0.4" stroke="#EF4444" stroke-width="2"/>

      <!-- Point p -->
      <circle cx="41" cy="42" r="4.5" fill="#EF4444" stroke="#DC2626" stroke-width="1.2"/>
      <text x="50" y="39" font-size="8" fill="#DC2626" font-weight="600">p</text>

      <!-- Question marks showing difficulty -->
      <text x="72" y="48" font-size="13" fill="#DC2626" font-weight="700" opacity="0.5">?</text>
      <text x="18" y="82" font-size="11" fill="#DC2626" font-weight="700" opacity="0.4">?</text>
    </g>

    <!-- Comparison boxes -->
    <g transform="translate(210, 44)">
      <!-- Rectangular grid: easy -->
      <rect x="0" y="0" width="210" height="46" rx="5" fill="#F0FDF4" stroke="#A7F3D0" stroke-width="0.8"/>
      <text x="12" y="16" font-size="9" fill="#065F46" font-weight="700">Rectangular grid:</text>
      <text x="12" y="32" font-size="8.5" fill="#059669">floor(x), floor(y)</text>
      <text x="138" y="32" font-size="8.5" fill="#059669" font-weight="700">instant!</text>
      <text x="192" y="16" font-size="12" fill="#10B981" font-weight="700">&#x2713;</text>

      <!-- Triangular grid: hard -->
      <rect x="0" y="58" width="210" height="46" rx="5" fill="#FEF2F2" stroke="#FECACA" stroke-width="0.8"/>
      <text x="12" y="74" font-size="9" fill="#9F1239" font-weight="700">Triangular grid:</text>
      <text x="12" y="90" font-size="8.5" fill="#DC2626">which triangle? geometric tests...</text>
      <text x="192" y="74" font-size="12" fill="#EF4444" font-weight="700">&#x2717;</text>
    </g>

    <!-- Core problem message box -->
    <g transform="translate(15, 168)">
      <rect x="0" y="0" width="405" height="125" rx="5" fill="#FFF7ED" stroke="#FDBA74" stroke-width="0.8"/>
      <text x="202" y="20" text-anchor="middle" font-size="10" fill="#9A3412" font-weight="700">The core problem</text>
      <text x="202" y="40" text-anchor="middle" font-size="9" fill="#C2410C">Simplex grids need fewer vertices (D+1 instead of 2&#x207F;),</text>
      <text x="202" y="56" text-anchor="middle" font-size="9" fill="#C2410C">but standard (x, y) coordinates don't align with them.</text>
      <line x1="30" y1="68" x2="375" y2="68" stroke="#FDBA74" stroke-width="0.5"/>
      <text x="202" y="86" text-anchor="middle" font-size="10" fill="#9A3412" font-weight="700">We need a coordinate system where</text>
      <text x="202" y="104" text-anchor="middle" font-size="10" fill="#9A3412" font-weight="700">simplex lookup is as simple as floor() for rectangles.</text>
      <text x="202" y="120" text-anchor="middle" font-size="9" fill="#6B7280">That coordinate system is the permutohedral lattice.</text>
    </g>
  </g>

  <!-- Arrow left panel to right panel -->
  <line x1="453" y1="217" x2="477" y2="217" stroke="#6B7280" stroke-width="1.5" marker-end="url(#arrowGray)"/>
  <text x="465" y="210" text-anchor="middle" font-size="7.5" fill="#6B7280" font-weight="600">elevate</text>

  <!-- ================================================================ -->
  <!-- RIGHT PANEL: The Solution                                        -->
  <!-- ================================================================ -->
  <g transform="translate(480, 65)">
    <rect x="0" y="0" width="465" height="305" rx="8" fill="#EFF6FF" stroke="#3B82F6" stroke-width="1.2"/>
    <rect x="8" y="6" width="72" height="18" rx="9" fill="#3B82F6"/>
    <text x="44" y="19" text-anchor="middle" font-size="9" fill="white" font-weight="700">Solution</text>
    <text x="278" y="20" text-anchor="middle" font-size="13" font-weight="700" fill="#1E40AF">3 Symmetric Coordinates (a, b, c)</text>
    <text x="160" y="38" text-anchor="middle" font-size="9" fill="#3B82F6">On hyperplane a + b + c = 0</text>

    <!-- ============================================================ -->
    <!-- THE SORTING WHEEL: hexagon with 6 sectors                    -->
    <!-- R=85, pointy-top orientation                                 -->
    <!-- Vertices: top(0,-85) ur(74,-43) lr(74,43) bot(0,85)         -->
    <!--           ll(-74,43) ul(-74,-43)                             -->
    <!-- ============================================================ -->
    <g transform="translate(155, 172)">
      <!-- Sector fills (alternating light/dark) -->
      <!-- Sector 1: a>b>c  HIGHLIGHTED -->
      <polygon points="0,0 0,-85 74,-43" fill="#3B82F6" fill-opacity="0.25"/>
      <!-- Sector 2: a>c>b -->
      <polygon points="0,0 74,-43 74,43" fill="#DBEAFE" fill-opacity="0.4"/>
      <!-- Sector 3: c>a>b -->
      <polygon points="0,0 74,43 0,85" fill="#EFF6FF" fill-opacity="0.6"/>
      <!-- Sector 4: c>b>a -->
      <polygon points="0,0 0,85 -74,43" fill="#DBEAFE" fill-opacity="0.4"/>
      <!-- Sector 5: b>c>a -->
      <polygon points="0,0 -74,43 -74,-43" fill="#EFF6FF" fill-opacity="0.6"/>
      <!-- Sector 6: b>a>c -->
      <polygon points="0,0 -74,-43 0,-85" fill="#DBEAFE" fill-opacity="0.4"/>

      <!-- Hexagon outline -->
      <polygon points="0,-85 74,-43 74,43 0,85 -74,43 -74,-43" fill="none" stroke="#3B82F6" stroke-width="1.5"/>

      <!-- 3 diameter lines (equality boundaries) -->
      <!-- a = b: vertical -->
      <line x1="0" y1="-85" x2="0" y2="85" stroke="#1D4ED8" stroke-width="1" stroke-dasharray="4,2"/>
      <!-- b = c: upper-right to lower-left -->
      <line x1="74" y1="-43" x2="-74" y2="43" stroke="#1D4ED8" stroke-width="1" stroke-dasharray="4,2"/>
      <!-- a = c: lower-right to upper-left -->
      <line x1="74" y1="43" x2="-74" y2="-43" stroke="#1D4ED8" stroke-width="1" stroke-dasharray="4,2"/>

      <!-- Vertex dots (lattice points) -->
      <circle cx="0" cy="-85" r="3" fill="#93C5FD" stroke="#3B82F6" stroke-width="0.8"/>
      <circle cx="74" cy="-43" r="3" fill="#93C5FD" stroke="#3B82F6" stroke-width="0.8"/>
      <circle cx="74" cy="43" r="3" fill="#93C5FD" stroke="#3B82F6" stroke-width="0.8"/>
      <circle cx="0" cy="85" r="3" fill="#93C5FD" stroke="#3B82F6" stroke-width="0.8"/>
      <circle cx="-74" cy="43" r="3" fill="#93C5FD" stroke="#3B82F6" stroke-width="0.8"/>
      <circle cx="-74" cy="-43" r="3" fill="#93C5FD" stroke="#3B82F6" stroke-width="0.8"/>

      <!-- Center lattice point -->
      <circle cx="0" cy="0" r="4" fill="#1D4ED8"/>

      <!-- Sector labels -->
      <text x="24" y="-34" text-anchor="middle" font-size="7.5" fill="#1E40AF" font-weight="700">a&gt;b&gt;c</text>
      <text x="52" y="3" text-anchor="middle" font-size="7" fill="#3B82F6">a&gt;c&gt;b</text>
      <text x="26" y="42" text-anchor="middle" font-size="7" fill="#3B82F6">c&gt;a&gt;b</text>
      <text x="-24" y="42" text-anchor="middle" font-size="7" fill="#3B82F6">c&gt;b&gt;a</text>
      <text x="-50" y="3" text-anchor="middle" font-size="7" fill="#3B82F6">b&gt;c&gt;a</text>
      <text x="-24" y="-34" text-anchor="middle" font-size="7" fill="#3B82F6">b&gt;a&gt;c</text>

      <!-- Diameter labels (outside hexagon) -->
      <text x="12" y="-88" font-size="7.5" fill="#1D4ED8" font-weight="600">a = b</text>
      <text x="80" y="-40" font-size="7.5" fill="#1D4ED8" font-weight="600">b = c</text>
      <text x="80" y="48" font-size="7.5" fill="#1D4ED8" font-weight="600">a = c</text>

      <!-- Point p inside sector 1 (a>b>c) -->
      <circle cx="20" cy="-55" r="4.5" fill="#EF4444" stroke="#DC2626" stroke-width="1.2"/>
      <text x="28" y="-60" font-size="8" fill="#DC2626" font-weight="600">p</text>
    </g>

    <!-- Right-side annotations: how it works -->
    <g transform="translate(305, 52)">
      <text x="75" y="14" text-anchor="middle" font-size="10" fill="#1E40AF" font-weight="700">How it works</text>

      <g transform="translate(0, 28)">
        <circle cx="8" cy="6" r="8" fill="#DBEAFE" stroke="#3B82F6" stroke-width="0.8"/>
        <text x="8" y="9" text-anchor="middle" font-size="8" fill="#1D4ED8" font-weight="700">1</text>
        <text x="22" y="3" font-size="8.5" fill="#374151">Compute 3 coords</text>
        <text x="22" y="16" font-size="8" fill="#6B7280">(a, b, c) with a+b+c=0</text>
      </g>

      <g transform="translate(0, 62)">
        <circle cx="8" cy="6" r="8" fill="#DBEAFE" stroke="#3B82F6" stroke-width="0.8"/>
        <text x="8" y="9" text-anchor="middle" font-size="8" fill="#1D4ED8" font-weight="700">2</text>
        <text x="22" y="3" font-size="8.5" fill="#374151">Sort them</text>
        <text x="22" y="16" font-size="8" fill="#6B7280">e.g. a &gt; b &gt; c</text>
      </g>

      <g transform="translate(0, 96)">
        <circle cx="8" cy="6" r="8" fill="#DBEAFE" stroke="#3B82F6" stroke-width="0.8"/>
        <text x="8" y="9" text-anchor="middle" font-size="8" fill="#1D4ED8" font-weight="700">3</text>
        <text x="22" y="3" font-size="8.5" fill="#374151">Sorting order IS</text>
        <text x="22" y="16" font-size="8" fill="#374151" font-weight="600">the simplex identity!</text>
      </g>

      <rect x="0" y="130" width="150" height="28" rx="4" fill="#DBEAFE" stroke="#3B82F6" stroke-width="1"/>
      <text x="75" y="149" text-anchor="middle" font-size="10" fill="#1E40AF" font-weight="700">Sort = O(D log D)</text>
    </g>

    <!-- Bottom caption -->
    <text x="155" y="292" text-anchor="middle" font-size="10" fill="#1E40AF" font-weight="700">6 orderings of 3 values = 6 simplices per cell</text>
  </g>

  <!-- ================================================================ -->
  <!-- BOTTOM PANEL: Why Must They Sum to Zero?                        -->
  <!-- ================================================================ -->
  <g transform="translate(15, 385)">
    <rect x="0" y="0" width="930" height="285" rx="8" fill="#FDF4FF" stroke="#A855F7" stroke-width="1.2"/>
    <text x="465" y="24" text-anchor="middle" font-size="14" font-weight="700" fill="#5B21B6">Why Must They Sum to Zero?</text>
    <text x="465" y="42" text-anchor="middle" font-size="10" fill="#A855F7">The constraint a + b + c = 0 has three essential consequences</text>

    <!-- ============================================================ -->
    <!-- COLUMN 1: Preserves Dimensionality                           -->
    <!-- ============================================================ -->
    <g transform="translate(15, 58)">
      <rect x="0" y="0" width="280" height="215" rx="6" fill="white" stroke="#E9D5FF" stroke-width="0.8"/>
      <text x="140" y="20" text-anchor="middle" font-size="11" font-weight="700" fill="#5B21B6">Preserves Dimensionality</text>

      <!-- Bar chart: 3 bars summing to zero -->
      <g transform="translate(0, 30)">
        <!-- Zero line -->
        <line x1="55" y1="65" x2="225" y2="65" stroke="#D1D5DB" stroke-width="1" stroke-dasharray="2,2"/>
        <text x="232" y="68" font-size="7" fill="#9CA3AF">0</text>

        <!-- Bar a: positive, extends 35px above zero -->
        <rect x="72" y="30" width="32" height="35" rx="3" fill="#DBEAFE" stroke="#3B82F6" stroke-width="0.8"/>
        <text x="88" y="24" text-anchor="middle" font-size="9" fill="#3B82F6" font-weight="700">a</text>
        <text x="88" y="52" text-anchor="middle" font-size="8" fill="#3B82F6">+</text>

        <!-- Bar b: positive, extends 15px above zero -->
        <rect x="118" y="50" width="32" height="15" rx="3" fill="#D1FAE5" stroke="#10B981" stroke-width="0.8"/>
        <text x="134" y="44" text-anchor="middle" font-size="9" fill="#10B981" font-weight="700">b</text>
        <text x="134" y="61" text-anchor="middle" font-size="8" fill="#10B981">+</text>

        <!-- Bar c: negative, extends 50px below zero (35+15=50) -->
        <rect x="164" y="65" width="32" height="50" rx="3" fill="#F3E8FF" stroke="#A855F7" stroke-width="0.8"/>
        <text x="180" y="125" text-anchor="middle" font-size="9" fill="#A855F7" font-weight="700">c</text>
        <text x="180" y="94" text-anchor="middle" font-size="8" fill="#A855F7">&#x2212;</text>

        <!-- Sum annotation -->
        <text x="140" y="140" text-anchor="middle" font-size="9" fill="#7E22CE" font-weight="700">a + b + c = 0</text>
      </g>

      <text x="140" y="188" text-anchor="middle" font-size="9" fill="#374151" font-weight="600">3 coordinates &#x2212; 1 constraint = 2 free dims</text>
      <text x="140" y="205" text-anchor="middle" font-size="8.5" fill="#6B7280">Same information as (x, y), just rearranged</text>
    </g>

    <!-- ============================================================ -->
    <!-- COLUMN 2: All Axes Are Equal                                 -->
    <!-- ============================================================ -->
    <g transform="translate(310, 58)">
      <rect x="0" y="0" width="280" height="215" rx="6" fill="white" stroke="#E9D5FF" stroke-width="0.8"/>
      <text x="140" y="20" text-anchor="middle" font-size="11" font-weight="700" fill="#5B21B6">All Axes Are Equal</text>

      <!-- 3-way symmetric star: arrows at 120 degree intervals -->
      <g transform="translate(140, 100)">
        <!-- Arrow a: pointing up -->
        <line x1="0" y1="0" x2="0" y2="-50" stroke="#3B82F6" stroke-width="2.5"/>
        <circle cx="0" cy="-50" r="3.5" fill="#3B82F6"/>
        <text x="10" y="-42" font-size="10" fill="#3B82F6" font-weight="700">a</text>

        <!-- Arrow b: pointing lower-right (120 deg CW from up) -->
        <line x1="0" y1="0" x2="43" y2="25" stroke="#10B981" stroke-width="2.5"/>
        <circle cx="43" cy="25" r="3.5" fill="#10B981"/>
        <text x="50" y="18" font-size="10" fill="#10B981" font-weight="700">b</text>

        <!-- Arrow c: pointing lower-left (240 deg CW from up) -->
        <line x1="0" y1="0" x2="-43" y2="25" stroke="#A855F7" stroke-width="2.5"/>
        <circle cx="-43" cy="25" r="3.5" fill="#A855F7"/>
        <text x="-56" y="18" font-size="10" fill="#A855F7" font-weight="700">c</text>

        <!-- 120 degree arcs (simplified as text) -->
        <text x="18" y="-14" font-size="7" fill="#9CA3AF">120&#xB0;</text>
        <text x="-28" y="-14" font-size="7" fill="#9CA3AF">120&#xB0;</text>
        <text x="0" y="38" text-anchor="middle" font-size="7" fill="#9CA3AF">120&#xB0;</text>

        <!-- Center dot -->
        <circle cx="0" cy="0" r="3" fill="#7E22CE"/>
      </g>

      <text x="140" y="168" text-anchor="middle" font-size="9" fill="#374151" font-weight="600">No axis is special</text>
      <text x="140" y="184" text-anchor="middle" font-size="9" fill="#374151">every coordinate plays the same role</text>
      <line x1="30" y1="191" x2="250" y2="191" stroke="#E9D5FF" stroke-width="0.5"/>
      <text x="140" y="207" text-anchor="middle" font-size="8.5" fill="#6B7280">Simplex vertices = permutations of each other</text>
    </g>

    <!-- ============================================================ -->
    <!-- COLUMN 3: Sorting = Simplex Lookup                           -->
    <!-- ============================================================ -->
    <g transform="translate(605, 58)">
      <rect x="0" y="0" width="310" height="215" rx="6" fill="white" stroke="#E9D5FF" stroke-width="0.8"/>
      <text x="155" y="20" text-anchor="middle" font-size="11" font-weight="700" fill="#5B21B6">Sorting = Simplex Lookup</text>

      <!-- Mini sorting wheel -->
      <g transform="translate(82, 108)">
        <!-- Mini hexagon R=48 -->
        <polygon points="0,-48 42,-24 42,24 0,48 -42,24 -42,-24" fill="#F3E8FF" stroke="#A855F7" stroke-width="1"/>

        <!-- 3 mini diameters -->
        <line x1="0" y1="-48" x2="0" y2="48" stroke="#7E22CE" stroke-width="0.7" stroke-dasharray="2,2"/>
        <line x1="42" y1="-24" x2="-42" y2="24" stroke="#7E22CE" stroke-width="0.7" stroke-dasharray="2,2"/>
        <line x1="42" y1="24" x2="-42" y2="-24" stroke="#7E22CE" stroke-width="0.7" stroke-dasharray="2,2"/>

        <!-- Highlighted sector -->
        <polygon points="0,0 0,-48 42,-24" fill="#A855F7" fill-opacity="0.3"/>

        <!-- Center -->
        <circle cx="0" cy="0" r="2.5" fill="#7E22CE"/>

        <!-- Sector numbers -->
        <text x="14" y="-20" text-anchor="middle" font-size="6" fill="#7E22CE" font-weight="600">1</text>
        <text x="28" y="3" text-anchor="middle" font-size="6" fill="#7E22CE">2</text>
        <text x="14" y="26" text-anchor="middle" font-size="6" fill="#7E22CE">3</text>
        <text x="-12" y="26" text-anchor="middle" font-size="6" fill="#7E22CE">4</text>
        <text x="-26" y="3" text-anchor="middle" font-size="6" fill="#7E22CE">5</text>
        <text x="-12" y="-20" text-anchor="middle" font-size="6" fill="#7E22CE">6</text>
      </g>

      <!-- Annotation to the right of mini wheel -->
      <g transform="translate(148, 62)">
        <rect x="0" y="0" width="148" height="78" rx="4" fill="#F9FAFB" stroke="#E5E7EB" stroke-width="0.6"/>
        <text x="74" y="18" text-anchor="middle" font-size="8.5" fill="#374151" font-weight="600">Equality lines</text>
        <text x="74" y="34" text-anchor="middle" font-size="8" fill="#6B7280">a = b, b = c, a = c</text>
        <text x="74" y="50" text-anchor="middle" font-size="8" fill="#6B7280">are the simplex</text>
        <text x="74" y="66" text-anchor="middle" font-size="8" fill="#6B7280">boundaries</text>
      </g>

      <!-- Formula box -->
      <rect x="35" y="178" width="240" height="28" rx="4" fill="#F3E8FF" stroke="#A855F7" stroke-width="1"/>
      <text x="155" y="197" text-anchor="middle" font-size="10" fill="#5B21B6" font-weight="700">Sorting D+1 values: O(D log D)</text>
    </g>
  </g>

</svg>
