<?xml version="1.0" encoding="utf-8"?>
<!-- Generator: Adobe Illustrator 28.1.0, SVG Export Plug-In . SVG Version: 6.00 Build 0)  -->
<svg version="1.1" id="Layer_1" xmlns="http://www.w3.org/2000/svg" xmlns:xlink="http://www.w3.org/1999/xlink" x="0px" y="0px"
	 viewBox="0 0 1600 500" style="enable-background:new 0 0 1600 500;" xml:space="preserve">
<style type="text/css">
	.st0{fill:url(#SVGID_1_);}
	.st1{fill:url(#SVGID_00000053514572729592024110000014897014390672490883_);}
	.st2{fill:#FF6633;}
	.st3{fill:#1FBEC9;}
	.st4{fill:url(#SVGID_00000013897133104421477870000000244859300852217745_);}
	.st5{fill:url(#SVGID_00000012444638164623076190000009143368671448876929_);}
	.st6{fill:#FFFFFF;}
</style>
<g>
	<g id="Layer_1_00000103945279519842149160000013492041312996072115_">
		<g>
			<linearGradient id="SVGID_1_" gradientUnits="userSpaceOnUse" x1="354.4925" y1="372.3686" x2="395.1787" y2="425.3099">
				<stop  offset="0" style="stop-color:#15768C"/>
				<stop  offset="0.1694" style="stop-color:#188B9D"/>
				<stop  offset="0.3807" style="stop-color:#1A9EAC"/>
				<stop  offset="0.5982" style="stop-color:#1CA9B5"/>
				<stop  offset="0.8297" style="stop-color:#1CADB8"/>
			</linearGradient>
			<path class="st0" d="M235.3,419.1c42.2,28.7,91.6,38.7,136.8,23.1c51.7-17.9,85.9-65.5,96.1-123.7c-34,25.2-78,49.6-127.7,69.3
				C303.6,402.5,267.8,412.9,235.3,419.1z"/>
			
				<linearGradient id="SVGID_00000181056939427114492130000007114993748606930066_" gradientUnits="userSpaceOnUse" x1="146.0235" y1="146.1376" x2="305.3477" y2="62.682">
				<stop  offset="6.610756e-02" style="stop-color:#FF6633"/>
				<stop  offset="0.2371" style="stop-color:#FF7133"/>
				<stop  offset="0.6373" style="stop-color:#FF8733"/>
				<stop  offset="0.8966" style="stop-color:#FF8F33"/>
			</linearGradient>
			<path style="fill:url(#SVGID_00000181056939427114492130000007114993748606930066_);" d="M360.1,76.9
				C320,52.8,274.4,45.1,232.5,59.6c-49.4,17.1-82.7,61.2-94.6,115.8c34-25.2,78-49.6,127.8-69.4C298.6,92.9,330.6,83.2,360.1,76.9z
				"/>
			<path class="st2" d="M514.4,101.9c-10.3-34.3-73-42.5-154.2-25c-29.5,6.3-61.5,16-94.4,29.1c-49.7,19.8-93.8,44.2-127.8,69.4
				c-50.2,37.2-78.3,76.1-69.9,104c6.9,23,38.7,34.3,83.3,32.7c44.4-1.5,101.6-15.8,159.7-43.7c-69.9,15.5-122.9,13.2-121.6-7
				c1.9-29.6,73-85.9,179.2-125.5c15.4-5.7,29.8-10.7,43.3-14.9c45.5-14.3,80.2-20.4,102.8-18.2
				C514.5,102.5,514.5,102.2,514.4,101.9z"/>
			<path class="st3" d="M538.2,214.4c-7.2-23.9-41-35.1-88.2-32.5c-43.7,2.4-98.7,16.6-154.7,43.5c69.9-15.5,122.9-13.2,121.6,7
				c-1.9,29.6-73,85.9-179.2,125.5c-17.9,6.7-34.5,12.3-49.9,17c-42.2,12.9-74.7,18.2-96.1,16.1c0.1,0.3,0.1,0.6,0.2,0.9
				c9.9,32.8,67.4,41.7,143.4,27.2c32.5-6.2,68.3-16.6,105.2-31.3c49.7-19.8,93.7-44.2,127.7-69.3
				C518.5,281.2,546.6,242.3,538.2,214.4z"/>
			
				<linearGradient id="SVGID_00000096018302425073518350000002335386579926447286_" gradientUnits="userSpaceOnUse" x1="143.393" y1="255.2188" x2="377.0686" y2="144.4506">
				<stop  offset="0" style="stop-color:#ED5F2F"/>
				<stop  offset="1" style="stop-color:#FF6633"/>
			</linearGradient>
			<path style="fill:url(#SVGID_00000096018302425073518350000002335386579926447286_);" d="M189.4,261.4
				c1.9-29.6,73-85.9,179.2-125.5c15.4-5.7,29.8-10.7,43.3-14.9c-15.4-17.9-33-32.8-51.7-44.1c-29.5,6.3-61.5,16-94.4,29.1
				c-49.7,19.8-93.8,44.2-127.8,69.4c-8.6,39.5-5.9,84.5,10.3,128.8c1,2.7,2,5.3,3.1,7.9c44.4-1.5,101.6-15.8,159.7-43.7
				C241.1,283.9,188.1,281.7,189.4,261.4z"/>
			
				<linearGradient id="SVGID_00000021109473691245953370000011561702989603828098_" gradientUnits="userSpaceOnUse" x1="192.8151" y1="353.3304" x2="415.8691" y2="268.3574">
				<stop  offset="0" style="stop-color:#1BACB5"/>
				<stop  offset="0.9115" style="stop-color:#1FBEC9"/>
			</linearGradient>
			<path style="fill:url(#SVGID_00000021109473691245953370000011561702989603828098_);" d="M456.3,197.6c-2-5.3-4.1-10.5-6.4-15.7
				c-43.7,2.4-98.7,16.6-154.7,43.5c69.9-15.5,122.9-13.2,121.6,7c-1.9,29.6-73,85.9-179.2,125.5c-17.9,6.7-34.5,12.3-49.9,17
				c14.1,17.6,30.2,32.5,47.5,44.3c32.5-6.2,68.3-16.6,105.2-31.3c49.7-19.8,93.7-44.2,127.7-69.3
				C474.8,280.9,471.4,239,456.3,197.6z"/>
		</g>
	</g>
	<g id="Layer_3">
		<g>
			<path class="st6" d="M663.7,353.4c-15.8-5.2-29.5-12.5-41-21.8l25.4-35.5c18.5,14.5,40.1,21.8,64.7,21.8
				c12.3,0,22.1-2.1,29.4-6.2c7.3-4.2,10.9-9.9,10.9-17.1c0-6.7-3.4-12-10.1-15.8c-6.7-3.8-17.5-6.5-32.2-8
				c-28.5-3.2-49.3-9.9-62.4-20c-13.2-10.1-19.9-24.7-19.9-43.5c0-12.7,3.5-24,10.7-33.6c7.2-9.8,17.2-17.3,30.1-22.7s27.9-8,44.7-8
				c14.5,0,28.7,2.1,42.5,6.2c13.8,4.1,26,10,36.6,17.6L770,201.1c-16.3-11.3-34.3-17.1-54-17.1c-12.1,0-21.9,2-29,6
				c-7.3,4-10.9,9.3-10.9,16.1c0,6.6,3.2,11.6,9.4,15.2c6.2,3.5,16.7,6.2,31.4,8c28.2,3.2,49.3,10.2,63.3,21.1
				C794.1,261.2,801,276,801,295c0,13.2-3.6,24.7-11.1,34.7c-7.4,10-17.6,17.8-31,23.3c-13.3,5.4-28.6,8.2-45.9,8.2
				C695.9,361.2,679.4,358.6,663.7,353.4z"/>
			<path class="st6" d="M827.3,147.7h46.8v208.7h-46.8V147.7z"/>
			<path class="st6" d="M1063.6,209.1v147.4H1023l-2.9-17.6c-12.5,13.8-28.8,20.6-48.9,20.6c-13.8,0-25.9-3.2-36.6-9.6
				c-10.6-6.5-18.9-15.5-24.9-27.2c-6-11.6-8.9-24.9-8.9-39.7c0-14.9,2.9-28.2,8.9-39.7c6-11.6,14.2-20.7,24.9-27.2
				c10.6-6.5,22.8-9.6,36.6-9.6c9.9,0,19.1,1.8,27.4,5.2c8.3,3.5,15.5,8.5,21.5,15.1l2.9-17.3h40.6V209.1z M1007.7,309.8
				c6.6-6.8,9.9-15.9,9.9-26.9c0-11.2-3.3-20.1-9.9-26.9c-6.6-6.8-15.1-10.2-25.4-10.2s-18.7,3.5-25.2,10.5
				c-6.5,6.9-9.6,15.9-9.6,26.8s3.2,19.9,9.6,26.8c6.5,6.9,14.8,10.5,25.2,10.5C992.6,320,1001.1,316.6,1007.7,309.8z"/>
			<path class="st6" d="M1233.5,223.7c10.8,11.9,16.2,28.5,16.2,49.5v83.1h-46.8v-80.6c0-9.5-2.4-17.1-7.2-22.3
				c-4.8-5.3-11.3-8-19.6-8c-9.2,0-16.5,3.1-22.1,9.3c-5.5,6.1-8.3,14.2-8.3,24.1v77.5h-46.8V209.1h40.6l2.9,17.3
				c5.8-6.6,12.7-11.6,20.7-15.2c8-3.5,16.9-5.4,26.7-5.4C1208.1,205.8,1222.6,211.8,1233.5,223.7z"/>
			<path class="st6" d="M1428.8,351.2c5.4,8,8.2,17.3,8.2,27.9c0,12.3-3.4,23.2-10.1,32.7c-6.7,9.4-16.3,16.7-28.6,21.8
				c-12.3,5.1-26.7,7.6-42.9,7.6c-15.9,0-29.9-2.6-41.7-7.8c-11.9-5.2-21.2-12.5-27.6-22.1c-6.5-9.5-9.6-20.6-9.6-33
				c0-3.2,0.1-5.5,0.4-7.2h45c-0.4,9.8,2.4,17.3,8.2,22.7c5.9,5.4,14.3,8,25.5,8c10,0,18-2.2,24.1-6.7s9.3-10.3,9.3-17.8
				s-2.8-13.4-8.5-17.4c-5.6-4.1-13.8-6.1-24.3-6.1c-16.3,0-30.6-3.1-42.8-9.3c-12.2-6.1-21.6-14.8-28.3-26.1
				c-6.7-11.2-10-24.3-10-39.2c0-14.3,3.4-27,10.2-38.3c6.8-11.2,16.3-20,28.6-26.2c12.2-6.2,26.2-9.4,41.9-9.4
				c12.1,0,23.3,2.4,33.4,7.2l17.3-21.5l34.3,24.7l-19.6,22.9c9.9,11.3,14.9,24.8,14.9,40.6c0,10.9-2.6,21.1-7.9,30.2
				c-5.3,9.3-12.7,16.8-22.2,22.8C1415.6,336.8,1423.3,343.2,1428.8,351.2z M1380.6,304.5c6.4-6.4,9.5-14.8,9.5-25.4
				s-3.2-18.9-9.4-25.2c-6.2-6.2-14.7-9.4-25.2-9.4c-10.3,0-18.7,3.2-25,9.4c-6.4,6.2-9.5,14.7-9.5,25.2c0,10.3,3.2,18.7,9.5,25.2
				c6.4,6.5,14.7,9.6,25,9.6C1365.9,314.2,1374.2,311,1380.6,304.5z"/>
		</g>
		<g>
			<path class="st6" d="M1495.8,209.3v6.6h-9.9v25.7h-7.6v-25.7h-9.8v-6.6H1495.8z"/>
			<path class="st6" d="M1528.9,209.3h6.8v32.3h-7.5v-20.2l-9.5,11.6h-1.5l-9.6-11.7v20.2h-7.5v-32.3h6.8l11,13.7L1528.9,209.3z"/>
		</g>
	</g>
</g>
</svg>
