<svg xmlns="http://www.w3.org/2000/svg" width="760" height="430" viewBox="0 0 760 430" role="img" aria-label="D3D and Vulkan shader binding table layout">
  <style>
    .title { font: 700 20px sans-serif; fill: #202020; }
    .label { font: 700 13px sans-serif; fill: #202020; }
    .small { font: 12px sans-serif; fill: #333333; }
    .tiny { font: 11px sans-serif; fill: #333333; }
    .sbt { fill: #ffffff; stroke: #555555; stroke-width: 2; rx: 8; }
    .hit { fill: #f8fbff; stroke: #336699; stroke-width: 1.5; rx: 6; }
    .miss { fill: #fffaf2; stroke: #a65f00; stroke-width: 1.5; rx: 6; }
    .call { fill: #f3fff6; stroke: #2f7d45; stroke-width: 1.5; rx: 6; }
    .note { fill: #fffaf2; stroke: #a65f00; stroke-width: 1.5; rx: 7; }
    .header { fill: #e9f2ff; stroke: #667788; stroke-width: 1; }
    .cell { fill: #ffffff; stroke: #667788; stroke-width: 1; }
    .highlight { fill: #ffe8e5; stroke: #b42318; stroke-width: 2; }
    .redNote { font: 700 12px sans-serif; fill: #8a1f17; }
  </style>

  <text x="34" y="38" class="title">D3D / Vulkan Shader Binding Table</text>
  <text x="34" y="62" class="small">One host-side object with hit-group, miss, and callable sections.</text>

  <rect x="34" y="88" width="690" height="300" class="sbt"/>
  <text x="60" y="118" class="label">Shader Binding Table</text>
  <text x="222" y="118" class="redNote">no shader binding point</text>

  <rect x="60" y="144" width="424" height="188" class="hit"/>
  <text x="82" y="170" class="label">hit-group section: m x n</text>

  <rect x="82" y="192" width="64" height="28" class="header"/>
  <text x="97" y="210" class="tiny">row/col</text>
  <rect x="146" y="192" width="86" height="28" class="header"/>
  <text x="173" y="210" class="tiny">slot 0</text>
  <rect x="232" y="192" width="86" height="28" class="header"/>
  <text x="259" y="210" class="tiny">slot 1</text>
  <rect x="318" y="192" width="86" height="28" class="header"/>
  <text x="345" y="210" class="tiny">slot 2</text>
  <rect x="404" y="192" width="36" height="28" class="header"/>
  <text x="414" y="210" class="tiny">...</text>

  <rect x="82" y="220" width="64" height="47" class="header"/>
  <text x="99" y="248" class="tiny">row 0</text>
  <rect x="146" y="220" width="86" height="47" class="cell"/>
  <text x="162" y="235" class="tiny">ClosestHit</text>
  <text x="170" y="250" class="tiny">AnyHit</text>
  <text x="160" y="264" class="tiny">Intersection</text>
  <rect x="232" y="220" width="86" height="47" class="cell"/>
  <text x="248" y="235" class="tiny">ClosestHit</text>
  <text x="256" y="250" class="tiny">AnyHit</text>
  <text x="246" y="264" class="tiny">Intersection</text>
  <rect x="318" y="220" width="86" height="47" class="cell"/>
  <text x="334" y="235" class="tiny">ClosestHit</text>
  <text x="342" y="250" class="tiny">AnyHit</text>
  <text x="332" y="264" class="tiny">Intersection</text>
  <rect x="404" y="220" width="36" height="47" class="cell"/>
  <text x="414" y="248" class="tiny">...</text>

  <rect x="82" y="267" width="64" height="47" class="header"/>
  <text x="99" y="295" class="tiny">row 1</text>
  <rect x="146" y="267" width="86" height="47" class="cell"/>
  <text x="162" y="282" class="tiny">ClosestHit</text>
  <text x="170" y="297" class="tiny">AnyHit</text>
  <text x="160" y="311" class="tiny">Intersection</text>
  <rect x="232" y="267" width="86" height="47" class="highlight"/>
  <text x="248" y="282" class="tiny">ClosestHit</text>
  <text x="256" y="297" class="tiny">AnyHit</text>
  <text x="246" y="311" class="tiny">Intersection</text>
  <rect x="318" y="267" width="86" height="47" class="cell"/>
  <text x="334" y="282" class="tiny">ClosestHit</text>
  <text x="342" y="297" class="tiny">AnyHit</text>
  <text x="332" y="311" class="tiny">Intersection</text>
  <rect x="404" y="267" width="36" height="47" class="cell"/>
  <text x="414" y="295" class="tiny">...</text>

  <rect x="500" y="144" width="160" height="86" class="miss"/>
  <text x="530" y="170" class="label">miss section</text>
  <rect x="540" y="184" width="80" height="20" class="cell"/>
  <text x="563" y="198" class="tiny">Miss0</text>
  <rect x="540" y="204" width="80" height="20" class="cell"/>
  <text x="573" y="218" class="tiny">...</text>

  <rect x="500" y="246" width="160" height="86" class="call"/>
  <text x="526" y="272" class="label">callable section</text>
  <rect x="540" y="286" width="80" height="20" class="cell"/>
  <text x="562" y="300" class="tiny">Call0</text>
  <rect x="540" y="306" width="80" height="20" class="cell"/>
  <text x="573" y="320" class="tiny">...</text>

  <rect x="66" y="348" width="590" height="24" class="note"/>
  <text x="88" y="365" class="small">Hit-group records can name ClosestHit, AnyHit, and Intersection together.</text>
</svg>
